timestamp,event,channel,pitch,velocity
1.37392751E12,noteOn,9,46,5
1.37392751E12,noteOff,9,46,64
1.37392751E12,noteOn,9,36,11
1.37392751E12,noteOff,9,36,64
1.37392751E12,noteOn,0,4,126
1.37392751E12,noteOn,9,46,25
1.37392751E12,noteOff,9,46,64
1.37392751E12,noteOn,9,36,51
1.37392751E12,noteOff,9,36,64
1.37392751E12,noteOn,9,36,11
1.37392751E12,noteOff,9,36,64
1.37392751E12,noteOn,9,46,68
1.37392751E12,noteOn,0,38,92
1.37392751E12,noteOff,9,46,64
1.37392751E12,noteOn,9,46,11
1.37392751E12,noteOff,9,46,64
1.37392751E12,noteOn,0,38,64
1.37392751E12,noteOn,9,36,47
1.37392751E12,noteOn,9,46,55
1.37392751E12,noteOff,9,46,64
1.37392751E12,noteOn,9,46,8
1.37392751E12,noteOff,9,36,64
1.37392751E12,noteOn,0,46,64
1.37392751E12,noteOn,9,38,45
1.37392751E12,noteOff,9,38,64
1.37392751E12,noteOn,9,38,46
1.37392751E12,noteOff,9,38,64
1.37392751E12,noteOn,9,36,55
1.37392751E12,noteOn,9,46,58
1.37392751E12,noteOff,9,46,64
1.37392751E12,noteOn,9,46,10
1.37392751E12,noteOff,9,36,64
1.37392751E12,noteOn,0,46,64
1.37392751E12,noteOn,9,46,35
1.37392751E12,noteOff,9,46,64
1.37392751E12,noteOn,9,38,83
1.37392751E12,noteOn,9,46,31
1.37392751E12,noteOff,9,38,64
1.37392751E12,noteOn,9,38,45
1.37392751E12,noteOff,9,46,64
1.37392751E12,noteOn,9,36,52
1.37392751E12,noteOff,9,38,64
1.37392751E12,noteOff,9,36,64
1.37392751E12,noteOn,0,4,123
1.37392751E12,noteOn,9,46,48
1.37392751E12,noteOn,0,38,93
1.37392751E12,noteOff,9,46,64
1.37392751E12,noteOn,9,46,11
1.37392751E12,noteOff,9,46,64
1.37392751E12,noteOn,0,38,64
1.37392751E12,noteOn,9,36,55
1.37392751E12,noteOn,9,46,47
1.37392751E12,noteOff,9,36,64
1.37392751E12,noteOff,9,46,64
1.37392751E12,noteOn,9,46,7
1.37392751E12,noteOff,9,46,64
1.37392751E12,noteOn,9,38,67
1.37392751E12,noteOn,0,36,11
1.37392751E12,noteOff,9,38,64
1.37392751E12,noteOn,9,38,84
1.37392751E12,noteOff,9,36,64
1.37392751E12,noteOn,0,38,64
1.37392751E12,noteOn,9,46,45
1.37392751E12,noteOn,0,36,67
1.37392751E12,noteOff,9,46,64
1.37392751E12,noteOn,0,36,64
1.37392751E12,noteOn,9,46,30
1.37392751E12,noteOff,9,46,64
1.37392751E12,noteOn,9,38,70
1.37392751E12,noteOff,9,38,64
1.37392751E12,noteOn,9,46,39
1.37392751E12,noteOn,9,38,43
1.37392751E12,noteOff,9,46,64
1.37392751E12,noteOff,9,38,64
1.37392751E12,noteOn,9,36,43
1.37392751E12,noteOff,9,36,64
1.37392751E12,noteOn,9,36,62
1.37392751E12,noteOff,9,36,64
1.37392751E12,noteOn,9,46,50
1.37392751E12,noteOn,0,38,93
1.37392751E12,noteOff,9,46,64
1.37392751E12,noteOn,0,38,64
1.37392751E12,noteOn,0,4,88
1.37392751E12,noteOn,0,4,71
1.37392751E12,noteOn,0,4,37
1.37392751E12,noteOn,0,4,21
1.37392751E12,noteOn,9,36,64
1.37392751E12,noteOff,0,4,0
1.37392751E12,noteOff,0,4,0
1.37392751E12,noteOn,9,46,48
1.37392751E12,noteOff,9,36,64
1.37392751E12,noteOn,0,46,64
1.37392751E12,noteOn,0,4,34
1.37392751E12,noteOn,0,4,50
1.37392751E12,noteOn,0,4,67
1.37392751E12,noteOn,0,4,76
1.37392751E12,noteOn,9,44,32
1.37392751E12,noteOn,0,38,92
1.37392751E12,noteOn,0,4,99
1.37392751E12,noteOn,0,4,115
1.37392751E12,noteOn,0,4,126
1.37392751E12,noteOff,9,44,64
1.37392751E12,noteOn,0,38,64
1.37392751E12,noteOn,9,48,97
1.37392751E12,noteOff,9,48,64
1.37392751E12,noteOn,9,36,69
1.37392751E12,noteOn,0,51,38
1.37392751E12,noteOff,9,36,64
1.37392751E12,noteOn,0,51,64
1.37392751E12,noteOn,9,51,41
1.37392751E12,noteOff,9,51,64
1.37392751E12,noteOn,9,38,100
1.37392751E12,noteOff,9,38,64
1.37392751E12,noteOn,9,51,49
1.37392751E12,noteOn,9,38,40
1.37392751E12,noteOff,9,51,64
1.37392751E12,noteOn,9,36,55
1.37392751E12,noteOff,9,38,64
1.37392751E12,noteOn,0,36,64
1.37392751E12,noteOn,9,36,19
1.37392751E12,noteOff,9,36,64
1.37392751E12,noteOn,9,51,47
1.37392751E12,noteOn,0,38,111
1.37392751E12,noteOff,9,51,64
1.37392751E12,noteOn,0,38,64
1.37392751E12,noteOn,9,36,42
1.37392751E12,noteOn,0,51,76
1.37392751E12,noteOff,9,36,64
1.37392751E12,noteOn,9,38,30
1.37392751E12,noteOff,9,51,64
1.37392751E12,noteOff,9,38,64
1.37392751E12,noteOn,9,38,29
1.37392751E12,noteOff,9,38,64
1.37392751E12,noteOn,9,38,12
1.37392751E12,noteOff,9,38,64
1.37392751E12,noteOn,9,38,103
1.37392751E12,noteOff,9,38,64
1.37392751E12,noteOn,9,38,62
1.37392751E12,noteOn,9,36,55
1.37392751E12,noteOff,9,38,64
1.37392751E12,noteOn,9,51,35
1.37392751E12,noteOff,9,36,64
1.37392751E12,noteOn,0,51,64
1.37392751E12,noteOn,9,38,44
1.37392751E12,noteOff,9,38,64
1.37392751E12,noteOn,9,51,20
1.37392751E12,noteOn,9,38,68
1.37392751E12,noteOff,9,51,64
1.37392751E12,noteOff,9,38,64
1.37392751E12,noteOn,9,51,20
1.37392751E12,noteOn,0,38,48
1.37392751E12,noteOff,9,51,64
1.37392751E12,noteOn,9,36,56
1.37392751E12,noteOff,9,38,64
1.37392751E12,noteOff,9,36,64
1.37392751E12,noteOn,9,51,115
1.37392751E12,noteOn,0,38,127
1.37392751E12,noteOff,9,51,64
1.37392751E12,noteOn,0,38,64
1.37392751E12,noteOn,9,36,53
1.37392751E12,noteOn,0,51,48
1.37392751E12,noteOff,9,36,64
1.37392751E12,noteOff,9,51,64
1.37392751E12,noteOn,9,38,82
1.37392751E12,noteOff,9,38,64
1.37392751E12,noteOn,9,38,72
1.37392751E12,noteOff,9,38,64
1.37392751E12,noteOn,9,51,24
1.37392751E12,noteOn,0,36,64
1.37392751E12,noteOff,9,51,64
1.37392751E12,noteOn,0,36,64
1.37392751E12,noteOn,9,51,21
1.37392751E12,noteOn,0,38,62
1.37392751E12,noteOff,9,51,64
1.37392751E12,noteOff,9,38,64
1.37392751E12,noteOn,9,38,51
1.37392751E12,noteOn,0,4,88
1.37392751E12,noteOff,9,38,64
1.37392751E12,noteOn,9,51,23
1.37392751E12,noteOn,0,36,61
1.37392751E12,noteOff,9,51,64
1.37392751E12,noteOn,0,36,64
1.37392751E12,noteOn,9,36,41
1.37392751E12,noteOff,9,36,64
1.37392751E12,noteOn,9,51,64
1.37392751E12,noteOn,0,38,118
1.37392751E12,noteOff,9,51,64
1.37392751E12,noteOn,0,38,64
1.37392751E12,noteOn,9,36,55
1.37392751E12,noteOn,0,51,54
1.37392751E12,noteOff,9,36,64
1.37392751E12,noteOn,0,51,64
1.37392751E12,noteOn,9,38,80
1.37392751E12,noteOff,9,38,64
1.37392751E12,noteOn,9,38,79
1.37392751E12,noteOff,9,38,64
1.37392751E12,noteOn,9,49,65
1.37392751E12,noteOn,0,36,70
1.37392751E12,noteOff,9,49,64
1.37392751E12,noteOff,9,36,64
1.37392751E12,noteOn,9,49,64
1.37392751E12,noteOn,0,36,53
1.37392751E12,noteOff,9,49,64
1.37392751E12,noteOff,9,36,64
1.37392751E12,noteOn,9,55,70
1.37392751E12,noteOff,9,55,64
1.37392751E12,noteOn,9,38,99
1.37392751E12,noteOff,9,38,64
1.37392751E12,noteOn,9,38,73
1.37392751E12,noteOff,9,38,64
1.37392751E12,noteOn,9,38,53
1.37392751E12,noteOff,9,38,64
1.37392751E12,noteOn,9,38,112
1.37392751E12,noteOff,9,38,64
1.37392751E12,noteOn,9,48,58
1.37392751E12,noteOn,9,38,71
1.37392751E12,noteOff,9,48,64
1.37392751E12,noteOn,0,38,64
1.37392751E12,noteOn,9,38,101
1.37392751E12,noteOff,9,38,64
1.37392751E12,noteOn,9,38,67
1.37392751E12,noteOff,9,38,64
1.37392751E12,noteOn,9,43,75
1.37392751E12,noteOff,9,43,64
1.37392751E12,noteOn,9,43,81
1.37392751E12,noteOff,9,43,64
1.37392751E12,noteOn,9,36,67
1.37392751E12,noteOn,9,46,106
1.37392751E12,noteOn,0,4,74
1.37392751E12,noteOff,9,36,64
1.37392751E12,noteOff,9,46,64
1.37392751E12,noteOn,0,4,6
1.37392751E12,noteOff,0,4,0
1.37392751E12,noteOn,0,4,34
1.37392751E12,noteOn,0,4,50
1.37392751E12,noteOn,0,4,52
1.37392751E12,noteOn,9,46,32
1.37392751E12,noteOn,0,4,76
1.37392751E12,noteOn,9,44,42
1.37392751E12,noteOn,0,4,100
1.37392751E12,noteOn,0,4,116
1.37392751E12,noteOn,0,4,127
1.37392751E12,noteOff,9,46,64
1.37392751E12,noteOn,0,44,64
1.37392751E12,noteOn,0,4,95
1.37392751E12,noteOn,0,4,79
1.37392751E12,noteOn,9,38,93
1.37392751E12,noteOn,0,4,111
1.37392751E12,noteOn,0,4,127
1.37392751E12,noteOff,9,38,64
1.37392751E12,noteOn,9,46,52
1.37392751E12,noteOn,0,38,111
1.37392751E12,noteOff,9,46,64
1.37392751E12,noteOn,0,38,64
1.37392751E12,noteOn,0,4,88
1.37392751E12,noteOn,0,4,71
1.37392751E12,noteOn,0,4,54
1.37392751E12,noteOn,9,36,62
1.37392751E12,noteOn,9,46,40
1.37392751E12,noteOn,0,4,3
1.37392751E12,noteOff,0,4,0
1.37392751E12,noteOff,0,4,0
1.37392751E12,noteOff,9,46,64
1.37392751E12,noteOn,9,46,7
1.37392751E12,noteOff,9,36,64
1.37392751E12,noteOn,0,46,64
1.37392751E12,noteOn,9,37,47
1.37392751E12,noteOn,0,4,34
1.37392751E12,noteOn,0,4,50
1.37392751E12,noteOn,0,4,67
1.37392751E12,noteOn,9,38,57
1.37392751E12,noteOn,9,44,24
1.37392751E12,noteOff,9,37,64
1.37392751E12,noteOn,0,4,115
1.37392751E12,noteOn,0,4,127
1.37392751E12,noteOff,9,38,64
1.37392751E12,noteOn,0,44,64
1.37392751E12,noteOn,9,46,52
1.37392751E12,noteOn,0,36,60
1.37392751E12,noteOff,9,46,64
1.37392751E12,noteOn,9,46,8
1.37392751E12,noteOff,9,46,64
1.37392751E12,noteOn,9,38,36
1.37392751E12,noteOff,9,36,64
1.37392751E12,noteOn,0,38,64
1.37392751E12,noteOn,9,38,41
1.37392751E12,noteOff,9,38,64
1.37392751E12,noteOn,9,38,29
1.37392751E12,noteOff,9,38,64
1.37392751E12,noteOn,9,46,38
1.37392751E12,noteOff,9,46,64
1.37392751E12,noteOn,9,38,33
1.37392751E12,noteOn,9,46,20
1.37392751E12,noteOff,9,38,64
1.37392751E12,noteOn,0,46,64
1.37392751E12,noteOn,9,38,47
1.37392751E12,noteOn,0,36,62
1.37392751E12,noteOff,9,38,64
1.37392751E12,noteOn,0,36,64
1.37392751E12,noteOn,0,4,127
1.37392751E12,noteOn,9,46,70
1.37392751E12,noteOn,0,38,98
1.37392751E12,noteOff,9,46,64
1.37392751E12,noteOn,0,38,64
1.37392751E12,noteOn,9,46,53
1.37392751E12,noteOn,0,36,60
1.37392751E12,noteOff,9,46,64
1.37392751E12,noteOn,9,46,7
1.37392751E12,noteOff,9,46,64
1.37392751E12,noteOn,0,36,64
1.37392751E12,noteOn,9,38,39
1.37392751E12,noteOff,9,38,64
1.37392751E12,noteOn,9,38,51
1.37392751E12,noteOff,9,38,64
1.37392751E12,noteOn,9,36,61
1.37392751E12,noteOn,9,46,47
1.37392751E12,noteOff,9,36,64
1.37392751E12,noteOff,9,46,64
1.37392751E12,noteOn,9,46,10
1.37392751E12,noteOn,0,38,56
1.37392751E12,noteOff,9,46,64
1.37392751E12,noteOff,9,38,64
1.37392751E12,noteOn,9,38,71
1.37392751E12,noteOff,9,38,64
1.37392751E12,noteOn,9,38,45
1.37392751E12,noteOff,9,38,64
1.37392751E12,noteOn,9,38,52
1.37392751E12,noteOff,9,38,64
1.37392751E12,noteOn,9,46,62
1.37392751E12,noteOn,0,36,55
1.37392751E12,noteOff,9,46,64
1.37392751E12,noteOn,9,46,10
1.37392751E12,noteOff,9,36,64
1.37392751E12,noteOn,9,36,13
1.37392751E12,noteOff,9,46,64
1.37392751E12,noteOn,0,36,64
1.37392751E12,noteOn,9,38,58
1.37392751E12,noteOff,9,38,64
1.37392751E12,noteOn,9,38,57
1.37392751E12,noteOff,9,38,64
1.37392751E12,noteOn,9,46,67
1.37392751E12,noteOn,0,36,59
1.37392751E12,noteOff,9,46,64
1.37392751E12,noteOn,9,46,11
1.37392751E12,noteOff,9,46,64
1.37392751E12,noteOn,0,36,64
1.37392751E12,noteOn,9,46,33
1.37392751E12,noteOff,9,46,64
1.37392751E12,noteOn,9,46,5
1.37392751E12,noteOn,0,38,58
1.37392751E12,noteOff,9,46,64
1.37392751E12,noteOn,0,38,64
1.37392751E12,noteOn,9,36,61
1.37392751E12,noteOn,9,46,50
1.37392751E12,noteOff,9,46,64
1.37392751E12,noteOn,9,46,7
1.37392751E12,noteOn,0,38,39
1.37392751E12,noteOff,9,36,64
1.37392751E12,noteOn,0,46,64
1.37392751E12,noteOn,0,38,64
1.37392751E12,noteOn,9,38,44
1.37392751E12,noteOff,9,38,64
1.37392751E12,noteOn,9,46,48
1.37392751E12,noteOn,0,38,43
1.37392751E12,noteOff,9,46,64
1.37392751E12,noteOn,0,38,64
1.37392751E12,noteOn,9,46,24
1.37392751E12,noteOn,0,36,67
1.37392751E12,noteOff,9,46,64
1.37392751E12,noteOn,0,36,64
1.37392751E12,noteOn,9,46,57
1.37392751E12,noteOn,0,38,105
1.37392751E12,noteOff,9,46,64
1.37392751E12,noteOn,0,38,64
1.37392751E12,noteOn,9,36,62
1.37392751E12,noteOn,9,46,59
1.37392751E12,noteOff,9,46,64
1.37392751E12,noteOn,9,46,9
1.37392751E12,noteOff,9,36,64
1.37392751E12,noteOn,0,46,64
1.37392751E12,noteOn,9,38,61
1.37392751E12,noteOff,9,38,64
1.37392751E12,noteOn,9,38,74
1.37392751E12,noteOff,9,38,64
1.37392751E12,noteOn,9,36,62
1.37392751E12,noteOn,9,46,37
1.37392751E12,noteOff,9,36,64
1.37392751E12,noteOn,0,46,64
1.37392751E12,noteOn,9,38,39
1.37392751E12,noteOff,9,38,64
1.37392751E12,noteOn,9,38,40
1.37392751E12,noteOff,9,38,64
1.37392751E12,noteOn,9,46,41
1.37392751E12,noteOn,0,38,44
1.37392751E12,noteOff,9,46,64
1.37392751E12,noteOn,0,38,64
1.37392751E12,noteOn,9,46,31
1.37392751E12,noteOn,9,36,62
1.37392751E12,noteOff,9,46,64
1.37392751E12,noteOn,0,36,64
1.37392751E12,noteOn,9,46,59
1.37392751E12,noteOn,0,38,101
1.37392751E12,noteOff,9,46,64
1.37392751E12,noteOn,0,38,64
1.37392751E12,noteOn,9,36,64
1.37392751E12,noteOn,9,46,61
1.37392751E12,noteOff,9,46,64
1.37392751E12,noteOn,9,46,11
1.37392751E12,noteOff,9,36,64
1.37392751E12,noteOn,0,46,64
1.37392751E12,noteOn,9,38,67
1.37392751E12,noteOff,9,38,64
1.37392751E12,noteOn,9,38,66
1.37392751E12,noteOff,9,38,64
1.37392751E12,noteOn,9,36,60
1.37392751E12,noteOn,9,46,40
1.37392751E12,noteOff,9,36,64
1.37392751E12,noteOn,0,46,64
1.37392751E12,noteOn,9,46,32
1.37392751E12,noteOn,9,38,61
1.37392751E12,noteOff,9,46,64
1.37392751E12,noteOn,0,38,64
1.37392751E12,noteOn,9,46,23
1.37392751E12,noteOn,9,38,42
1.37392751E12,noteOff,9,46,64
1.37392751E12,noteOn,0,38,64
1.37392751E12,noteOn,9,36,55
1.37392751E12,noteOff,9,36,64
1.37392751E12,noteOn,9,38,100
1.37392751E12,noteOn,9,46,58
1.37392751E12,noteOff,9,38,64
1.37392751E12,noteOn,0,46,64
1.37392751E12,noteOn,9,38,111
1.37392751E12,noteOff,9,38,64
1.37392751E12,noteOn,9,38,74
1.37392751E12,noteOff,9,38,64
1.37392751E12,noteOn,9,38,47
1.37392751E12,noteOff,9,38,64
1.37392751E12,noteOn,9,38,45
1.37392751E12,noteOff,9,38,64
1.37392751E12,noteOn,9,38,46
1.37392751E12,noteOff,9,38,64
1.37392751E12,noteOn,9,38,63
1.37392751E12,noteOff,9,38,64
1.37392751E12,noteOn,9,51,56
1.37392751E12,noteOn,0,36,60
1.37392751E12,noteOff,9,51,64
1.37392751E12,noteOn,0,36,64
1.37392751E12,noteOn,9,38,28
1.37392751E12,noteOff,9,38,64
1.37392751E12,noteOn,9,38,68
1.37392751E12,noteOff,9,38,64
1.37392751E12,noteOn,9,36,55
1.37392751E12,noteOff,9,36,64
1.37392751E12,noteOn,9,46,57
1.37392751E12,noteOn,0,38,99
1.37392751E12,noteOff,9,46,64
1.37392751E12,noteOn,0,38,64
1.37392751E12,noteOn,9,36,55
1.37392751E12,noteOn,9,46,47
1.37392751E12,noteOff,9,36,64
1.37392751E12,noteOff,9,46,64
1.37392751E12,noteOn,9,46,10
1.37392751E12,noteOff,9,46,64
1.37392751E12,noteOn,9,38,50
1.37392751E12,noteOff,9,38,64
1.37392751E12,noteOn,9,38,59
1.37392751E12,noteOff,9,38,64
1.37392751E12,noteOn,9,46,54
1.37392751E12,noteOn,0,36,55
1.37392751E12,noteOff,9,46,64
1.37392751E12,noteOn,9,38,43
1.37392751E12,noteOff,9,36,64
1.37392751E12,noteOn,0,38,64
1.37392751E12,noteOn,9,38,37
1.37392751E12,noteOff,9,38,64
1.37392751E12,noteOn,9,46,41
1.37392751E12,noteOn,0,36,38
1.37392751E12,noteOn,0,38,37
1.37392751E12,noteOff,9,46,64
1.37392751E12,noteOff,9,36,64
1.37392751E12,noteOn,0,38,64
1.37392751E12,noteOn,9,46,17
1.37392751E12,noteOn,0,36,57
1.37392751E12,noteOff,9,46,64
1.37392751E12,noteOff,9,36,64
1.37392751E12,noteOn,9,38,92
1.37392751E12,noteOn,9,46,57
1.37392751E12,noteOff,9,38,64
1.37392751E12,noteOn,0,46,64
1.37392751E12,noteOn,0,4,95
1.37392751E12,noteOn,0,4,85
1.37392751E12,noteOn,9,46,74
1.37392751E12,noteOn,0,36,62
1.37392751E12,noteOn,0,4,91
1.37392751E12,noteOff,9,46,64
1.37392751E12,noteOn,9,46,13
1.37392751E12,noteOff,9,46,64
1.37392751E12,noteOn,0,36,64
1.37392751E12,noteOn,9,38,64
1.37392751E12,noteOff,9,38,64
1.37392751E12,noteOn,9,38,71
1.37392751E12,noteOff,9,38,64
1.37392751E12,noteOn,9,46,57
1.37392751E12,noteOn,0,36,63
1.37392751E12,noteOff,9,46,64
1.37392751E12,noteOn,9,46,8
1.37392751E12,noteOff,9,46,64
1.37392751E12,noteOn,0,36,64
1.37392751E12,noteOn,9,46,28
1.37392751E12,noteOff,9,46,64
1.37392751E12,noteOn,9,46,4
1.37392751E12,noteOn,0,38,79
1.37392751E12,noteOff,9,46,64
1.37392751E12,noteOn,0,38,64
1.37392751E12,noteOn,9,46,39
1.37392751E12,noteOn,9,38,45
1.37392751E12,noteOff,9,46,64
1.37392751E12,noteOn,0,4,88
1.37392751E12,noteOff,9,38,64
1.37392751E12,noteOn,9,36,51
1.37392751E12,noteOff,9,36,64
1.37392751E12,noteOn,9,36,45
1.37392751E12,noteOn,0,4,120
1.37392751E12,noteOff,9,36,64
1.37392751E12,noteOn,9,46,53
1.37392751E12,noteOn,0,38,99
1.37392751E12,noteOff,9,46,64
1.37392751E12,noteOn,0,38,64
1.37392751E12,noteOn,9,36,57
1.37392751E12,noteOn,9,46,57
1.37392751E12,noteOff,9,46,64
1.37392751E12,noteOn,9,46,11
1.37392751E12,noteOff,9,36,64
1.37392751E12,noteOff,9,46,64
1.37392751E12,noteOn,9,38,50
1.37392751E12,noteOff,9,38,64
1.37392751E12,noteOn,9,38,54
1.37392751E12,noteOff,9,38,64
1.37392751E12,noteOn,9,46,56
1.37392751E12,noteOn,0,36,57
1.37392751E12,noteOff,9,46,64
1.37392751E12,noteOn,9,46,8
1.37392751E12,noteOff,9,46,64
1.37392751E12,noteOn,9,38,37
1.37392751E12,noteOff,9,36,64
1.37392751E12,noteOff,9,38,64
1.37392751E12,noteOn,9,38,39
1.37392751E12,noteOff,9,38,64
1.37392751E12,noteOn,0,4,126
1.37392751E12,noteOn,9,46,40
1.37392751E12,noteOn,9,38,45
1.37392751E12,noteOff,9,46,64
1.37392751E12,noteOn,0,38,64
1.37392751E12,noteOn,9,46,21
1.37392751E12,noteOff,9,46,64
1.37392751E12,noteOn,9,36,56
1.37392751E12,noteOff,9,36,64
1.37392751E12,noteOn,9,46,52
1.37392751E12,noteOn,0,38,85
1.37392751E12,noteOff,9,46,64
1.37392751E12,noteOn,0,38,64
1.37392751E12,noteOn,0,4,95
1.37392751E12,noteOn,0,4,79
1.37392751E12,noteOn,9,36,62
1.37392751E12,noteOn,0,4,56
1.37392751E12,noteOn,9,46,76
1.37392751E12,noteOn,0,4,29
1.37392751E12,noteOn,0,4,12
1.37392751E12,noteOff,9,36,64
1.37392751E12,noteOff,9,46,64
1.37392751E12,noteOn,9,46,11
1.37392751E12,noteOff,9,46,64
1.37392751E12,noteOn,9,38,64
1.37392751E12,noteOff,9,38,64
1.37392751E12,noteOn,9,38,67
1.37392751E12,noteOff,9,38,64
1.37392751E12,noteOn,0,4,41
1.37392751E12,noteOn,0,4,58
1.37392751E12,noteOn,0,4,74
1.37392751E12,noteOn,0,4,77
1.37392751E12,noteOn,9,44,22
1.37392751E12,noteOn,0,4,106
1.37392751E12,noteOn,0,4,122
1.37392751E12,noteOn,9,36,57
1.37392751E12,noteOn,0,4,127
1.37392751E12,noteOn,9,46,49
1.37392751E12,noteOff,9,44,64
1.37392751E12,noteOn,0,36,64
1.37392751E12,noteOn,0,46,64
1.37392751E12,noteOn,9,38,48
1.37392751E12,noteOff,9,38,64
1.37392751E12,noteOn,9,46,31
1.37392751E12,noteOn,0,38,34
1.37392751E12,noteOff,9,46,64
1.37392751E12,noteOn,0,38,64
1.37392751E12,noteOn,9,46,27
1.37392751E12,noteOff,9,46,64
1.37392751E12,noteOn,9,46,5
1.37392751E12,noteOff,9,46,64
1.37392751E12,noteOn,9,38,57
1.37392751E12,noteOff,9,38,64
1.37392751E12,noteOn,9,36,53
1.37392751E12,noteOff,9,36,64
1.37392751E12,noteOn,9,46,69
1.37392751E12,noteOn,0,38,100
1.37392751E12,noteOff,9,46,64
1.37392751E12,noteOn,0,38,64
1.37392751E12,noteOn,9,36,57
1.37392751E12,noteOn,9,46,52
1.37392751E12,noteOff,9,36,64
1.37392751E12,noteOff,9,46,64
1.37392751E12,noteOn,9,46,11
1.37392751E12,noteOff,9,46,64
1.37392751E12,noteOn,9,38,102
1.37392751E12,noteOff,9,38,64
1.37392751E12,noteOn,9,46,42
1.37392751E12,noteOn,0,36,61
1.37392751E12,noteOff,9,46,64
1.37392751E12,noteOn,0,36,64
1.37392751E12,noteOn,9,38,59
1.37392751E12,noteOff,9,38,64
1.37392751E12,noteOn,9,38,81
1.37392751E12,noteOff,9,38,64
1.37392751E12,noteOn,9,36,54
1.37392751E12,noteOff,9,36,64
1.37392751E12,noteOn,9,38,68
1.37392751E12,noteOff,9,38,64
1.37392751E12,noteOn,9,36,69
1.37392751E12,noteOff,9,36,64
1.37392751E12,noteOn,9,38,95
1.37392751E12,noteOn,9,46,41
1.37392751E12,noteOff,9,46,64
1.37392751E12,noteOn,9,46,10
1.37392751E12,noteOff,9,38,64
1.37392751E12,noteOn,0,46,64
1.37392751E12,noteOn,9,38,69
1.37392751E12,noteOff,9,38,64
1.37392751E12,noteOn,9,38,67
1.37392751E12,noteOff,9,38,64
1.37392751E12,noteOn,9,36,67
1.37392751E12,noteOn,9,46,41
1.37392751E12,noteOff,9,36,64
1.37392751E12,noteOff,9,46,64
1.37392751E12,noteOn,9,46,27
1.37392751E12,noteOn,0,38,74
1.37392751E12,noteOff,9,46,64
1.37392751E12,noteOff,9,38,64
1.37392751E12,noteOn,9,46,14
1.37392751E12,noteOn,0,38,44
1.37392751E12,noteOff,9,46,64
1.37392751E12,noteOff,9,38,64
1.37392751E12,noteOn,9,36,56
1.37392751E12,noteOff,9,36,64
1.37392751E12,noteOn,9,46,60
1.37392751E12,noteOn,0,38,97
1.37392751E12,noteOff,9,46,64
1.37392751E12,noteOn,0,38,64
1.37392751E12,noteOn,9,36,53
1.37392751E12,noteOn,9,46,50
1.37392751E12,noteOff,9,36,64
1.37392751E12,noteOff,9,46,64
1.37392751E12,noteOn,9,46,7
1.37392751E12,noteOff,9,46,64
1.37392751E12,noteOn,9,38,70
1.37392751E12,noteOff,9,38,64
1.37392751E12,noteOn,9,46,32
1.37392751E12,noteOn,0,36,76
1.37392751E12,noteOff,9,46,64
1.37392751E12,noteOn,9,38,54
1.37392751E12,noteOff,9,36,64
1.37392751E12,noteOn,0,38,64
1.37392751E12,noteOn,9,36,39
1.37392751E12,noteOn,9,46,24
1.37392751E12,noteOff,9,36,64
1.37392751E12,noteOn,0,46,64
1.37392751E12,noteOn,9,36,49
1.37392751E12,noteOff,9,36,64
1.37392751E12,noteOn,9,38,92
1.37392751E12,noteOn,9,46,56
1.37392751E12,noteOff,9,38,64
1.37392751E12,noteOn,0,46,64
1.37392751E12,noteOn,9,36,35
1.37392751E12,noteOff,9,36,64
1.37392751E12,noteOn,9,46,62
1.37392751E12,noteOff,9,46,64
1.37392751E12,noteOn,9,46,13
1.37392751E12,noteOff,9,46,64
1.37392751E12,noteOn,9,38,93
1.37392751E12,noteOff,9,38,64
1.37392751E12,noteOn,9,46,40
1.37392751E12,noteOff,9,46,64
1.37392751E12,noteOn,9,46,7
1.37392751E12,noteOff,9,46,64
1.37392751E12,noteOn,9,38,89
1.37392751E12,noteOff,9,38,64
1.37392751E12,noteOn,9,36,55
1.37392751E12,noteOff,9,36,64
1.37392751E12,noteOn,9,38,61
1.37392751E12,noteOff,9,38,64
1.37392751E12,noteOn,9,36,50
1.37392751E12,noteOff,9,36,64
1.37392751E12,noteOn,9,46,71
1.37392751E12,noteOn,0,38,95
1.37392751E12,noteOff,9,46,64
1.37392751E12,noteOn,0,38,64
1.37392751E12,noteOn,9,46,79
1.37392751E12,noteOn,0,36,56
1.37392751E12,noteOff,9,46,64
1.37392751E12,noteOn,9,46,10
1.37392751E12,noteOff,9,46,64
1.37392751E12,noteOn,0,36,64
1.37392751E12,noteOn,9,38,45
1.37392751E12,noteOff,9,38,64
1.37392751E12,noteOn,9,38,50
1.37392751E12,noteOff,9,38,64
1.37392751E12,noteOn,9,36,57
1.37392751E12,noteOn,9,46,50
1.37392751E12,noteOn,9,38,42
1.37392751E12,noteOff,9,36,64
1.37392751E12,noteOn,0,46,64
1.37392751E12,noteOn,0,38,64
1.37392751E12,noteOn,9,38,42
1.37392751E12,noteOff,9,38,64
1.37392751E12,noteOn,9,36,37
1.37392751E12,noteOn,9,46,42
1.37392751E12,noteOn,0,38,51
1.37392751E12,noteOff,9,36,64
1.37392751E12,noteOn,0,46,64
1.37392751E12,noteOn,0,38,64
1.37392751E12,noteOn,9,46,14
1.37392751E12,noteOn,0,36,60
1.37392751E12,noteOff,9,46,64
1.37392751E12,noteOn,0,36,64
1.37392751E12,noteOn,9,46,86
1.37392751E12,noteOn,0,38,104
1.37392751E12,noteOff,9,46,64
1.37392751E12,noteOn,0,38,64
1.37392751E12,noteOn,9,38,81
1.37392751E12,noteOff,9,38,64
1.37392751E12,noteOn,9,38,57
1.37392751E12,noteOff,9,38,64
1.37392751E12,noteOn,9,38,50
1.37392751E12,noteOff,9,38,64
1.37392751E12,noteOn,9,38,36
1.37392751E12,noteOff,9,38,64
1.37392751E12,noteOn,9,38,53
1.37392751E12,noteOff,9,38,64
1.37392751E12,noteOn,9,38,55
1.37392751E12,noteOff,9,38,64
1.37392751E12,noteOn,9,46,56
1.37392751E12,noteOn,9,36,63
1.37392751E12,noteOff,9,46,64
1.37392751E12,noteOn,9,46,9
1.37392751E12,noteOff,9,46,64
1.37392751E12,noteOn,0,36,64
1.37392751E12,noteOn,9,46,33
1.37392751E12,noteOff,9,46,64
1.37392751E12,noteOn,9,38,27
1.37392751E12,noteOff,9,38,64
1.37392751E12,noteOn,9,46,32
1.37392751E12,noteOn,0,38,54
1.37392751E12,noteOff,9,46,64
1.37392751E12,noteOn,9,36,57
1.37392751E12,noteOff,9,38,64
1.37392751E12,noteOn,0,36,64
1.37392751E12,noteOn,9,46,60
1.37392751E12,noteOn,0,38,97
1.37392751E12,noteOff,9,46,64
1.37392751E12,noteOn,9,46,11
1.37392751E12,noteOff,9,46,64
1.37392751E12,noteOn,0,38,64
1.37392751E12,noteOn,9,36,45
1.37392751E12,noteOn,0,38,79
1.37392751E12,noteOff,9,36,64
1.37392751E12,noteOff,9,38,64
1.37392751E12,noteOn,9,38,64
1.37392751E12,noteOff,9,38,64
1.37392751E12,noteOn,9,38,56
1.37392751E12,noteOff,9,38,64
1.37392751E12,noteOn,9,38,44
1.37392751E12,noteOff,9,38,64
1.37392751E12,noteOn,9,38,59
1.37392751E12,noteOff,9,38,64
1.37392751E12,noteOn,9,36,60
1.37392751E12,noteOff,9,36,64
1.37392751E12,noteOn,9,46,62
1.37392751E12,noteOff,9,46,64
1.37392751E12,noteOn,9,46,43
1.37392751E12,noteOn,9,38,68
1.37392751E12,noteOff,9,46,64
1.37392751E12,noteOn,9,36,55
1.37392751E12,noteOff,9,38,64
1.37392751E12,noteOn,0,36,64
1.37392751E12,noteOn,9,46,77
1.37392751E12,noteOn,0,38,99
1.37392751E12,noteOff,9,46,64
1.37392751E12,noteOn,0,38,64
1.37392751E12,noteOn,9,36,60
1.37392751E12,noteOn,9,46,69
1.37392751E12,noteOff,9,36,64
1.37392751E12,noteOff,9,46,64
1.37392751E12,noteOn,9,46,11
1.37392751E12,noteOff,9,46,64
1.37392751E12,noteOn,9,38,53
1.37392751E12,noteOff,9,38,64
1.37392751E12,noteOn,9,38,52
1.37392751E12,noteOff,9,38,64
1.37392751E12,noteOn,9,36,57
1.37392751E12,noteOn,9,46,42
1.37392751E12,noteOff,9,36,64
1.37392751E12,noteOn,0,46,64
1.37392751E12,noteOn,9,38,37
1.37392751E12,noteOff,9,38,64
1.37392751E12,noteOn,9,38,43
1.37392751E12,noteOff,9,38,64
1.37392751E12,noteOn,9,46,39
1.37392751E12,noteOn,0,38,41
1.37392751E12,noteOff,9,46,64
1.37392751E12,noteOff,9,38,64
1.37392751E12,noteOn,9,46,18
1.37392751E12,noteOff,9,46,64
1.37392751E12,noteOn,9,36,61
1.37392751E12,noteOff,9,36,64
1.37392751E12,noteOn,9,46,53
1.37392751E12,noteOn,0,38,84
1.37392751E12,noteOff,9,46,64
1.37392751E12,noteOn,0,38,64
1.37392751E12,noteOn,9,36,57
1.37392751E12,noteOn,9,46,62
1.37392751E12,noteOff,9,36,64
1.37392751E12,noteOff,9,46,64
1.37392751E12,noteOn,9,46,11
1.37392751E12,noteOff,9,46,64
1.37392751E12,noteOn,9,38,71
1.37392751E12,noteOff,9,38,64
1.37392751E12,noteOn,9,38,71
1.37392751E12,noteOff,9,38,64
1.37392751E12,noteOn,9,36,58
1.37392751E12,noteOn,9,46,81
1.37392751E12,noteOff,9,46,64
1.37392751E12,noteOn,9,46,8
1.37392751E12,noteOff,9,36,64
1.37392751E12,noteOn,0,46,64
1.37392751E12,noteOn,9,38,35
1.37392751E12,noteOff,9,38,64
1.37392751E12,noteOn,9,38,43
1.37392751E12,noteOff,9,38,64
1.37392751E12,noteOn,9,46,54
1.37392751E12,noteOn,0,38,46
1.37392751E12,noteOff,9,46,64
1.37392751E12,noteOff,9,38,64
1.37392751E12,noteOn,9,46,27
1.37392751E12,noteOff,9,46,64
1.37392751E12,noteOn,9,36,52
1.37392751E12,noteOff,9,36,64
1.37392751E12,noteOn,9,46,54
1.37392751E12,noteOn,0,38,106
1.37392751E12,noteOff,9,46,64
1.37392751E12,noteOn,0,38,64
1.37392751E12,noteOn,9,36,58
1.37392751E12,noteOn,0,38,101
1.37392751E12,noteOff,9,36,64
1.37392751E12,noteOff,9,38,64
1.37392751E12,noteOn,9,38,46
1.37392751E12,noteOff,9,38,64
1.37392751E12,noteOn,9,38,77
1.37392751E12,noteOn,0,36,52
1.37392751E12,noteOff,9,38,64
1.37392751E12,noteOn,9,46,37
1.37392751E12,noteOff,9,36,64
1.37392751E12,noteOff,9,46,64
1.37392751E12,noteOn,9,46,5
1.37392751E12,noteOff,9,46,64
1.37392751E12,noteOn,9,46,26
1.37392751E12,noteOn,0,38,57
1.37392751E12,noteOff,9,46,64
1.37392751E12,noteOff,9,38,64
1.37392751E12,noteOn,9,46,31
1.37392751E12,noteOn,0,38,39
1.37392751E12,noteOff,9,46,64
1.37392751E12,noteOn,0,38,64
1.37392751E12,noteOn,9,36,51
1.37392751E12,noteOff,9,36,64
1.37392751E12,noteOn,9,38,106
1.37392751E12,noteOn,9,46,64
1.37392751E12,noteOff,9,38,64
1.37392751E12,noteOn,0,46,64
1.37392751E12,noteOn,9,46,74
1.37392751E12,noteOn,0,36,61
1.37392751E12,noteOff,9,46,64
1.37392751E12,noteOn,9,46,10
1.37392751E12,noteOff,9,46,64
1.37392751E12,noteOn,0,36,64
1.37392751E12,noteOn,9,38,55
1.37392751E12,noteOff,9,38,64
1.37392751E12,noteOn,9,38,54
1.37392751E12,noteOn,0,36,48
1.37392751E12,noteOff,9,38,64
1.37392751E12,noteOn,9,46,73
1.37392751E12,noteOff,9,36,64
1.37392751E12,noteOn,0,46,64
1.37392751E12,noteOn,9,38,43
1.37392751E12,noteOff,9,38,64
1.37392751E12,noteOn,9,38,45
1.37392751E12,noteOff,9,38,64
1.37392751E12,noteOn,9,46,45
1.37392751E12,noteOn,0,36,52
1.37392751E12,noteOn,9,38,43
1.37392751E12,noteOff,9,46,64
1.37392751E12,noteOn,0,36,64
1.37392751E12,noteOn,0,38,64
1.37392751E12,noteOn,9,46,31
1.37392751E12,noteOn,0,36,54
1.37392751E12,noteOff,9,46,64
1.37392751E12,noteOn,0,36,64
1.37392751E12,noteOn,9,46,71
1.37392751E12,noteOn,0,38,100
1.37392751E12,noteOff,9,46,64
1.37392751E12,noteOn,9,46,12
1.37392751E12,noteOff,9,46,64
1.37392751E12,noteOn,0,38,64
1.37392751E12,noteOn,9,36,61
1.37392751E12,noteOff,9,36,64
1.37392751E12,noteOn,9,38,102
1.37392751E12,noteOff,9,38,64
1.37392751E12,noteOn,9,38,79
1.37392751E12,noteOff,9,38,64
1.37392751E12,noteOn,9,46,41
1.37392751E12,noteOn,0,36,60
1.37392751E12,noteOff,9,46,64
1.37392751E12,noteOn,9,46,6
1.37392751E12,noteOn,9,38,41
1.37392751E12,noteOff,9,46,64
1.37392751E12,noteOn,0,36,64
1.37392751E12,noteOn,0,38,64
1.37392751E12,noteOn,9,38,42
1.37392751E12,noteOff,9,38,64
1.37392751E12,noteOn,9,46,49
1.37392751E12,noteOn,0,36,38
1.37392751E12,noteOff,9,46,64
1.37392751E12,noteOn,9,38,42
1.37392751E12,noteOff,9,36,64
1.37392751E12,noteOn,0,38,64
1.37392751E12,noteOn,9,46,31
1.37392751E12,noteOff,9,46,64
1.37392751E12,noteOn,9,46,5
1.37392751E12,noteOff,9,46,64
1.37392751E12,noteOn,9,36,52
1.37392751E12,noteOff,9,36,64
1.37392751E12,noteOn,9,38,100
1.37392751E12,noteOn,9,46,62
1.37392751E12,noteOff,9,46,64
1.37392751E12,noteOn,9,46,12
1.37392751E12,noteOff,9,38,64
1.37392751E12,noteOn,0,46,64
1.37392751E12,noteOn,9,36,67
1.37392751E12,noteOff,9,36,64
1.37392751E12,noteOn,9,38,113
1.37392751E12,noteOn,0,43,104
1.37392751E12,noteOff,9,38,64
1.37392751E12,noteOn,0,43,64
1.37392751E12,noteOn,9,43,90
1.37392751E12,noteOn,0,38,50
1.37392751E12,noteOff,9,43,64
1.37392751E12,noteOff,9,38,64
1.37392751E12,noteOn,9,36,64
1.37392751E12,noteOff,9,36,64
1.37392751E12,noteOn,9,38,111
1.37392751E12,noteOn,0,43,83
1.37392751E12,noteOff,9,38,64
1.37392751E12,noteOn,0,43,64
1.37392751E12,noteOn,9,43,87
1.37392751E12,noteOff,9,43,64
1.37392751E12,noteOn,9,38,40
1.37392751E12,noteOff,9,38,64
1.37392751E12,noteOn,9,38,37
1.37392751E12,noteOff,9,38,64
1.37392751E12,noteOn,9,38,30
1.37392751E12,noteOff,9,38,64
1.37392751E12,noteOn,9,38,20
1.37392751E12,noteOff,9,38,64
1.37392751E12,noteOn,9,38,83
1.37392751E12,noteOff,9,38,64
1.37392751E12,noteOn,9,48,93
1.37392751E12,noteOff,9,48,64
1.37392751E12,noteOn,9,38,42
1.37392751E12,noteOff,9,38,64
1.37392751E12,noteOn,9,38,68
1.37392751E12,noteOn,9,36,52
1.37392751E12,noteOn,0,51,119
1.37392751E12,noteOff,9,38,64
1.37392751E12,noteOn,0,36,64
1.37392751E12,noteOn,0,51,64
1.37392751E12,noteOn,9,51,20
1.37392751E12,noteOff,9,51,64
1.37392751E12,noteOn,9,51,56
1.37392751E12,noteOn,0,38,43
1.37392751E12,noteOff,9,51,64
1.37392751E12,noteOn,0,38,64
1.37392751E12,noteOn,9,51,26
1.37392751E12,noteOff,9,51,64
1.37392751E12,noteOn,9,38,120
1.37392751E12,noteOn,0,51,66
1.37392751E12,noteOff,9,38,64
1.37392751E12,noteOn,0,51,64
1.37392751E12,noteOn,9,51,75
1.37392751E12,noteOff,9,51,64
1.37392751E12,noteOn,9,38,68
1.37392751E12,noteOff,9,38,64
1.37392751E12,noteOn,9,51,62
1.37392751E12,noteOn,0,36,62
1.37392751E12,noteOff,9,51,64
1.37392751E12,noteOn,0,36,64
1.37392751E12,noteOn,9,36,65
1.37392751E12,noteOn,0,51,127
1.37392751E12,noteOff,9,36,64
1.37392751E12,noteOn,0,51,64
1.37392751E12,noteOn,9,46,32
1.37392751E12,noteOn,0,36,65
1.37392751E12,noteOff,9,46,64
1.37392751E12,noteOn,9,51,41
1.37392751E12,noteOff,9,36,64
1.37392751E12,noteOn,0,51,64
1.37392751E12,noteOn,9,46,16
1.37392751E12,noteOff,9,46,64
1.37392751E12,noteOn,9,51,40
1.37392751E12,noteOn,9,46,16
1.37392751E12,noteOff,9,51,64
1.37392751E12,noteOff,9,46,64
1.37392751E12,noteOn,9,51,61
1.37392751E12,noteOn,0,36,55
1.37392751E12,noteOn,9,46,20
1.37392751E12,noteOff,9,51,64
1.37392751E12,noteOn,0,36,64
1.37392751E12,noteOff,9,46,64
1.37392751E12,noteOn,9,38,127
1.37392751E12,noteOff,9,38,64
1.37392751E12,noteOn,9,46,20
1.37392751E12,noteOn,9,51,56
1.37392751E12,noteOff,9,46,64
1.37392751E12,noteOn,0,51,64
1.37392751E12,noteOn,9,46,23
1.37392751E12,noteOn,0,4,124
1.37392751E12,noteOff,9,46,64
1.37392751E12,noteOn,9,46,5
1.37392751E12,noteOff,9,46,64
1.37392751E12,noteOn,9,51,58
1.37392751E12,noteOn,0,36,73
1.37392751E12,noteOn,0,4,126
1.37392751E12,noteOn,9,46,24
1.37392751E12,noteOff,9,51,64
1.37392751E12,noteOn,0,36,64
1.37392751E12,noteOff,9,46,64
1.37392751E12,noteOn,9,46,5
1.37392751E12,noteOff,9,46,64
1.37392751E12,noteOn,9,36,70
1.37392751E12,noteOn,0,51,64
1.37392751E12,noteOn,9,46,13
1.37392751E12,noteOff,9,36,64
1.37392751E12,noteOn,0,51,64
1.37392751E12,noteOn,0,46,64
1.37392751E12,noteOn,9,51,45
1.37392751E12,noteOn,9,46,13
1.37392751E12,noteOff,9,51,64
1.37392751E12,noteOn,0,46,64
1.37392751E12,noteOn,9,36,61
1.37392751E12,noteOn,0,51,53
1.37392751E12,noteOff,9,36,64
1.37392751E12,noteOn,9,46,26
1.37392751E12,noteOff,9,51,64
1.37392751E12,noteOff,9,46,64
1.37392751E12,noteOn,9,51,43
1.37392751E12,noteOn,9,46,28
1.37392751E12,noteOff,9,51,64
1.37392751E12,noteOn,0,46,64
1.37392751E12,noteOn,9,36,58
1.37392751E12,noteOn,0,51,28
1.37392751E12,noteOff,9,36,64
1.37392764E12,noteOff,9,51,64
1.37392764E12,noteOn,9,46,27
1.37392764E12,noteOff,9,46,64
1.37392764E12,noteOn,9,38,120
1.37392764E12,noteOff,9,38,64
1.37392764E12,noteOn,9,46,27
1.37392764E12,noteOn,0,36,63
1.37392764E12,noteOn,0,51,43
1.37392764E12,noteOff,9,46,64
1.37392764E12,noteOn,0,36,64
1.37392764E12,noteOn,0,51,64
1.37392764E12,noteOn,9,46,34
1.37392764E12,noteOn,0,36,69
1.37392764E12,noteOn,0,51,31
1.37392764E12,noteOff,9,46,64
1.37392764E12,noteOn,0,36,64
1.37392764E12,noteOn,0,51,64
1.37392764E12,noteOn,9,46,19
1.37392764E12,noteOn,9,51,33
1.37392764E12,noteOff,9,46,64
1.37392764E12,noteOn,0,51,64
1.37392764E12,noteOn,9,46,33
1.37392764E12,noteOff,9,46,64
1.37392764E12,noteOn,9,36,75
1.37392764E12,noteOn,0,51,56
1.37392764E12,noteOff,9,36,64
1.37392764E12,noteOn,0,51,64
1.37392764E12,noteOn,9,46,28
1.37392764E12,noteOff,9,46,64
1.37392764E12,noteOn,9,51,36
1.37392764E12,noteOn,0,36,80
1.37392764E12,noteOn,9,46,27
1.37392764E12,noteOff,9,51,64
1.37392764E12,noteOn,0,36,64
1.37392764E12,noteOff,9,46,64
1.37392764E12,noteOn,9,51,42
1.37392764E12,noteOn,9,46,23
1.37392764E12,noteOff,9,51,64
1.37392764E12,noteOn,0,46,64
1.37392764E12,noteOn,9,36,66
1.37392764E12,noteOn,0,51,24
1.37392764E12,noteOff,9,36,64
1.37392764E12,noteOn,0,51,64
1.37392764E12,noteOn,9,46,25
1.37392764E12,noteOff,9,46,64
1.37392764E12,noteOn,9,38,117
1.37392764E12,noteOff,9,38,64
1.37392764E12,noteOn,9,46,31
1.37392764E12,noteOff,9,46,64
1.37392764E12,noteOn,9,51,15
1.37392764E12,noteOff,9,51,64
1.37392764E12,noteOn,9,46,24
1.37392764E12,noteOn,0,36,64
1.37392764E12,noteOff,9,46,64
1.37392764E12,noteOn,9,51,45
1.37392764E12,noteOff,9,36,64
1.37392764E12,noteOn,9,46,23
1.37392764E12,noteOff,9,51,64
1.37392764E12,noteOn,9,36,59
1.37392764E12,noteOff,9,46,64
1.37392764E12,noteOn,9,51,47
1.37392764E12,noteOff,9,36,64
1.37392764E12,noteOn,9,46,25
1.37392764E12,noteOff,9,51,64
1.37392764E12,noteOff,9,46,64
1.37392764E12,noteOn,9,51,28
1.37392764E12,noteOn,9,46,27
1.37392764E12,noteOff,9,51,64
1.37392764E12,noteOff,9,46,64
1.37392764E12,noteOn,9,51,38
1.37392764E12,noteOn,0,36,71
1.37392764E12,noteOn,9,46,23
1.37392764E12,noteOff,9,51,64
1.37392764E12,noteOn,0,36,64
1.37392764E12,noteOff,9,46,64
1.37392764E12,noteOn,9,51,38
1.37392764E12,noteOff,9,51,64
1.37392764E12,noteOn,9,46,21
1.37392764E12,noteOff,9,46,64
1.37392764E12,noteOn,9,36,62
1.37392764E12,noteOn,0,51,20
1.37392764E12,noteOff,9,36,64
1.37392764E12,noteOn,0,51,64
1.37392764E12,noteOn,9,46,26
1.37392764E12,noteOff,9,46,64
1.37392764E12,noteOn,9,38,125
1.37392764E12,noteOff,9,38,64
1.37392764E12,noteOn,9,46,28
1.37392764E12,noteOff,9,46,64
1.37392764E12,noteOn,9,51,31
1.37392764E12,noteOff,9,51,64
1.37392764E12,noteOn,9,46,26
1.37392764E12,noteOff,9,46,64
1.37392764E12,noteOn,9,36,70
1.37392764E12,noteOn,0,51,33
1.37392764E12,noteOff,9,36,64
1.37392764E12,noteOn,0,51,64
1.37392764E12,noteOn,9,46,19
1.37392764E12,noteOff,9,46,64
1.37392764E12,noteOn,9,51,30
1.37392764E12,noteOff,9,51,64
1.37392764E12,noteOn,9,46,31
1.37392764E12,noteOff,9,46,64
1.37392764E12,noteOn,9,51,57
1.37392764E12,noteOn,0,36,67
1.37392764E12,noteOff,9,51,64
1.37392764E12,noteOn,0,36,64
1.37392764E12,noteOn,0,4,115
1.37392764E12,noteOn,9,51,55
1.37392764E12,noteOff,9,51,64
1.37392764E12,noteOn,9,51,52
1.37392764E12,noteOff,9,51,64
1.37392764E12,noteOn,9,51,57
1.37392764E12,noteOff,9,51,64
1.37392764E12,noteOn,9,51,48
1.37392764E12,noteOff,9,51,64
1.37392764E12,noteOn,9,51,41
1.37392764E12,noteOff,9,51,64
1.37392764E12,noteOn,9,51,45
1.37392764E12,noteOff,9,51,64
1.37392764E12,noteOn,9,51,35
1.37392764E12,noteOff,9,51,64
1.37392764E12,noteOn,9,51,53
1.37392764E12,noteOff,9,51,64
1.37392764E12,noteOn,0,4,108
1.37392764E12,noteOn,9,51,43
1.37392764E12,noteOff,9,51,64
1.37392764E12,noteOn,0,4,105
1.37392764E12,noteOn,9,51,45
1.37392764E12,noteOff,9,51,64
